<svg width="144" height="34" viewBox="0 0 144 34" fill="none" xmlns="http://www.w3.org/2000/svg">
<path fill-rule="evenodd" clip-rule="evenodd" d="M17 34C26.3889 34 34 26.3888 34 17C34 7.61117 26.3889 0 17 0C7.61115 0 0 7.61117 0 17C0 26.3888 7.61115 34 17 34ZM22.3034 7.91932C22.5616 7.00235 21.6717 6.46011 20.859 7.03911L9.51416 15.1211C8.63279 15.749 8.77143 17 9.72241 17H12.7098V16.9769H18.5322L13.788 18.6508L11.6966 26.0807C11.4385 26.9977 12.3283 27.5399 13.141 26.9609L24.4859 18.8789C25.3673 18.251 25.2285 17 24.2776 17H19.7473L22.3034 7.91932Z" fill="#77ED91"/>
<path d="M49.9854 21.5756C47.9086 21.5756 46.8263 19.7454 46.8263 17C46.8263 14.2546 47.9086 12.3948 49.9854 12.3948C52.0622 12.3948 53.1737 14.2546 53.1737 17C53.1737 19.7454 52.0622 21.5756 49.9854 21.5756ZM50.0146 25C54.8409 25 58 21.5461 58 17C58 12.4539 54.8409 9 50.0146 9C45.2175 9 42 12.4539 42 17C42 21.5461 45.2175 25 50.0146 25Z" fill="#77ED91"/>
<path d="M66.9854 21.5756C64.9086 21.5756 63.8263 19.7454 63.8263 17C63.8263 14.2546 64.9086 12.3948 66.9854 12.3948C69.0622 12.3948 70.1737 14.2546 70.1737 17C70.1737 19.7454 69.0622 21.5756 66.9854 21.5756ZM67.0146 25C71.841 25 75 21.5461 75 17C75 12.4539 71.841 9 67.0146 9C62.2176 9 59 12.4539 59 17C59 21.5461 62.2176 25 67.0146 25Z" fill="#77ED91"/>
<path d="M76 27H80.5872V20.6207H80.6435C81.5441 21.8563 82.8668 22.6034 84.7242 22.6034C88.4953 22.6034 91 19.5575 91 14.7874C91 10.3621 88.6642 7 84.8368 7C82.8668 7 81.4597 7.8908 80.4747 9.21264H80.3902V7.43104H76V27ZM83.5422 18.9828C81.5722 18.9828 80.4465 17.3448 80.4465 14.9598C80.4465 12.5747 81.4597 10.7644 83.4578 10.7644C85.4278 10.7644 86.3565 12.431 86.3565 14.9598C86.3565 17.4598 85.2871 18.9828 83.5422 18.9828Z" fill="#77ED91"/>
<path d="M99.2324 25C103.124 25 106 23.291 106 19.9908C106 16.1308 102.921 15.453 100.307 15.011C98.4191 14.6575 96.7344 14.5101 96.7344 13.4494C96.7344 12.5064 97.6349 12.0645 98.7967 12.0645C100.104 12.0645 101.004 12.477 101.178 13.8324H105.535C105.303 10.8564 103.037 9 98.8257 9C95.3112 9 92.4066 10.6501 92.4066 13.8324C92.4066 17.3683 95.166 18.0755 97.751 18.5175C99.7261 18.8711 101.527 19.0184 101.527 20.3738C101.527 21.3462 100.627 21.8766 99.2033 21.8766C97.6349 21.8766 96.6473 21.14 96.473 19.6372H92C92.1452 22.9669 94.8755 25 99.2324 25Z" fill="#77ED91"/>
<path d="M112.122 24.5C114.142 24.5 115.423 23.703 116.476 22.2799H116.561V24.0731H121V9.5H116.362V17.6404C116.362 19.3767 115.394 20.5721 113.801 20.5721C112.321 20.5721 111.61 19.6898 111.61 18.0958V9.5H107V19.0636C107 22.3083 108.764 24.5 112.122 24.5Z" fill="#77ED91"/>
<path d="M122 24.5H126.511V16.3311C126.511 14.5949 127.341 13.371 128.752 13.371C130.108 13.371 130.745 14.2818 130.745 15.8472V24.5H135.255V16.3311C135.255 14.5949 136.058 13.371 137.497 13.371C138.853 13.371 139.489 14.2818 139.489 15.8472V24.5H144V15.0218C144 11.7486 142.395 9.5 139.185 9.5C137.358 9.5 135.836 10.297 134.73 12.0617H134.674C133.955 10.4962 132.543 9.5 130.689 9.5C128.642 9.5 127.286 10.4962 126.4 12.0047H126.317V9.92695H122V24.5Z" fill="#77ED91"/>
</svg>
